<svg width="31" height="32" viewBox="0 0 31 32" fill="none" xmlns="http://www.w3.org/2000/svg">
<path d="M15.4815 0C9.33803 0 4.21411 4.52938 4.21411 10.3125C4.21411 12.5126 4.93645 14.4745 6.32275 16.3129L14.6192 28.1616C15.0217 28.7376 15.9421 28.7365 16.3437 28.1616L24.6762 16.2726C26.0326 14.5175 26.7488 12.4567 26.7488 10.3125C26.7488 4.62619 21.6943 0 15.4815 0ZM15.4815 15C12.6576 15 10.3599 12.8971 10.3599 10.3125C10.3599 7.72794 12.6576 5.625 15.4815 5.625C18.3053 5.625 20.603 7.72794 20.603 10.3125C20.603 12.8971 18.3053 15 15.4815 15Z" fill="#CD06FF"/>
<path d="M23.4891 21.5435L18.3313 28.9239C16.9962 30.829 13.9593 30.8228 12.6306 28.9257L7.46443 21.5454C2.91897 22.5073 0.116882 24.2693 0.116882 26.375C0.116882 30.0289 8.03326 32 15.4815 32C22.9297 32 30.846 30.0289 30.846 26.375C30.846 24.2678 28.0401 22.5048 23.4891 21.5435Z" fill="#CD06FF"/>
</svg>
